# xmcd CD database file
#
# Track frame offsets:
#	150
#	20572
#	44607
#	66125
#	87172
#	108492
#	130867
#	148395
#	166947
#	178095
#	195495
#
# Disc length: 2861 seconds
#
# Revision: 3
# Processed by: cddbd v1.5PL3 Copyright (c) Steve Scherf et al.
# Submitted via: CDex 1.50
#
DISCID=9d0b2b0b
DTITLE=飯塚　雅弓 - So Loving
DYEAR=1999
DGENRE=Pop
TTITLE0=Eternity 〜ひとひらのLove Song〜
TTITLE1=Love Letter
TTITLE2=Someday
TTITLE3=オレンジと観覧車
TTITLE4=いつもの帰り道
TTITLE5=星空にお祈り
TTITLE6=AM←→PM
TTITLE7=がんばって!
TTITLE8=ひだまりのオルゴール
TTITLE9=It's A Beautiful Day 〜永遠に続く日々〜
TTITLE10=すきです。
EXTD=YEAR: 1999
EXTT0=
EXTT1=
EXTT2=
EXTT3=
EXTT4=
EXTT5=
EXTT6=
EXTT7=
EXTT8=
EXTT9=
EXTT10=
PLAYORDER=
